# xmcd
#
# Track frame offsets:
#	150
#	37247
#	67635
#	81701
#	112575
#	147532
#	163912
#	190288
#	214914
#	259943
#
# Disc length: 4054 seconds
#
# Revision: 1
# Processed by: cddbd v1.5.2PL0 Copyright (c) Steve Scherf et al.
# Submitted via: audiograbber 1.83.01
#
DISCID=970fd40a
DTITLE=Grateful Dead - 79-12-30 Oakland Auditorium Arena, Oakland CA
DYEAR=1900
DGENRE=
TTITLE0=Minglewood Blues
TTITLE1=Candyman
TTITLE2=Me and My Uncle
TTITLE3=Big River
TTITLE4=Ramble On Rose
TTITLE5=Lazy Lightning
TTITLE6=Supplication
TTITLE7=Deal
TTITLE8=Scarlet Begonias
TTITLE9=Fire On The Mountain
EXTD=
EXTT0=
EXTT1=
EXTT2=
EXTT3=
EXTT4=
EXTT5=
EXTT6=
EXTT7=
EXTT8=
EXTT9=
PLAYORDER=
